# xmcd
#
# Track frame offsets:
# 150
# 17427
# 32584
# 53362
# 63494
# 78541
# 91996
# 108190
# 126532
# 147303
# 160532
#
# Disc length: 2454 seconds
#
#
# Revision: 0
# Processed by: cddbd v1.5.1PL0 Copyright (c) Steve Scherf et al.
# Submitted via: FreeRIP 2.90 
#
DISCID=8209940b
DTITLE=Bates Family - Take Me Home
DYEAR=2005
DGENRE=Bluegrass
TTITLE0=Old Danger Field
TTITLE1=Just One Way to the Gate
TTITLE2=I Just Want To Thank You, Lord
TTITLE3=The Lord's Gonna Lead Me Out
TTITLE4=Paddy on the Turnpike
TTITLE5=In the Palm of Your Hand
TTITLE6=The Grave Cannot Hold Me
TTITLE7=Weapon of Prayer
TTITLE8=Watson's Blues
TTITLE9=Kentucky Mandolin
TTITLE10=Is Not This the Land of Beulah
EXTD=http://www.tommybates.com
EXTT0=
EXTT1=
EXTT2=
EXTT3=
EXTT4=
EXTT5=
EXTT6=
EXTT7=
EXTT8=
EXTT9=
EXTT10=
PLAYORDER=
